<mxfile host="app.diagrams.net" modified="2023-06-08T18:07:45.584Z" agent="Mozilla/5.0 (Windows NT 10.0; Win64; x64) AppleWebKit/537.36 (KHTML, like Gecko) Chrome/112.0.0.0 Safari/537.36 OPR/98.0.0.0" version="21.3.8" etag="AElW24nW7e6sHs17_DF2" type="github">
  <diagram name="PÃ¡gina-1" id="F5KjFJ5974A6IugIdVwk">
    <mxGraphModel>
      <root>
        <mxCell id="0" />
        <mxCell id="1" parent="0" />
      </root>
    </mxGraphModel>
  </diagram>
</mxfile>
